<svg width="32" height="32" viewBox="0 0 32 32" fill="none" xmlns="http://www.w3.org/2000/svg">
<path fill-rule="evenodd" clip-rule="evenodd" d="M16 32C24.8366 32 32 24.8366 32 16C32 7.16344 24.8366 0 16 0C7.16344 0 0 7.16344 0 16C0 24.8366 7.16344 32 16 32Z" fill="#EFF2F6"/>
<path fill-rule="evenodd" clip-rule="evenodd" d="M10.1668 16.8333H19.4752L16.2418 20.0666C15.9168 20.3916 15.9168 20.925 16.2418 21.25C16.5668 21.575 17.0918 21.575 17.4168 21.25L22.0752 16.5916C22.4002 16.2666 22.4002 15.7416 22.0752 15.4166L17.4252 10.75C17.1002 10.425 16.5752 10.425 16.2502 10.75C15.9252 11.075 15.9252 11.6 16.2502 11.925L19.4752 15.1666H10.1668C9.7085 15.1666 9.3335 15.5416 9.3335 16C9.3335 16.4583 9.7085 16.8333 10.1668 16.8333Z" fill="#18214D"/>
</svg>
